<svg xmlns="http://www.w3.org/2000/svg" width="186.986" height="28.996" viewBox="0 0 186.986 28.996">
    <g data-name="Group 4313">
        <path d="M38.359 20.625l.91-1.085a6.7 6.7 0 0 0 5.136 2.449c3.345 0 4.3-1.919 4.3-3.355 0-4.945-9.832-2.373-9.832-8.249 0-2.751 2.411-4.491 5.384-4.491a6.965 6.965 0 0 1 5.556 2.372l-.935 1.059a5.8 5.8 0 0 0-4.694-2.119c-2.188 0-3.834 1.287-3.834 3.1 0 4.313 9.83 1.941 9.83 8.223 0 2.171-1.4 4.769-5.824 4.769a7.531 7.531 0 0 1-5.997-2.673z" data-name="Op component 1"/>
        <path d="M65.991 22.996l-6.761-7.92-1.818 2.042v5.878h-1.4V6.171h1.4v9.208l7.915-9.208h1.793l-6.981 8.022 7.645 8.8z" data-name="Op component 2"/>
        <path d="M72.868 22.996V6.171h10.4v1.313h-9v6.229h8.824v1.313h-8.824v6.659h9v1.311z" data-name="Op component 3"/>
        <path d="M93.368 22.996V7.484H88.01V6.171h12.141v1.313h-5.36v15.512z" data-name="Op component 4"/>
        <path d="M104.182 14.596c0-5.17 3.662-8.7 8.307-8.7a7.3 7.3 0 0 1 5.974 2.978l-1.18.783a5.908 5.908 0 0 0-4.794-2.449c-3.832 0-6.832 3-6.832 7.391 0 4.341 3 7.393 6.832 7.393a5.909 5.909 0 0 0 4.794-2.449l1.205.758a7.374 7.374 0 0 1-6 3c-4.644-.005-8.306-3.533-8.306-8.705z" data-name="Op component 5"/>
        <path d="M135.544 22.996v-8h-10.4v8h-1.4V6.171h1.4v7.518h10.4V6.171h1.4v16.825z" data-name="Op component 6"/>
        <path d="M152.307 22.996V6.171h10.4v1.313h-8.993v6.229h8.822v1.313h-8.822v7.97z" data-name="Op component 7"/>
        <path d="M168.091 6.166h1.4v16.83h-1.4z" data-name="Op component 8"/>
        <path d="M180.204 22.996V7.484h-5.358V6.171h12.145v1.313h-5.356v15.512z" data-name="Op component 9"/>
        <path d="M15.598 6.429L4.345 17.978l-.924-.95 11.252-11.55z" data-name="Op component 10"/>
        <path d="M20.946 11.918L9.694 23.467l-.926-.95 11.255-11.549z" data-name="Op component 11"/>
        <path d="M23.4 8.59c-2.311-2.137-5.163-.862-6.381.143L7.052 18.958c-.3.233-2.8 2.089-4.807.03s-.194-4.635.027-4.932L12.343 3.719l.5.513L14.115.001 12.186 1.98l-.77.79-10.1 10.365-.048.054c-1.007 1.284-2.291 4.347.048 6.75s5.324 1.082 6.577.048l9.968-10.225c.291-.23 2.72-2.031 4.709-.126 1.857 2.045.1 4.541-.122 4.833L11.917 25.28l-.5-.514-1.272 4.233 1.761-1.808.937-.96 10.584-10.865.022-.028c.979-1.25 2.221-4.18.139-6.549l-.185-.2z" data-name="Op component 12"/>
    </g>
</svg>
