<svg xmlns="http://www.w3.org/2000/svg" width="136.614" height="16" viewBox="0 0 136.614 16">
    <g data-name="Group 4180">
        <path d="M0 13.542l.91-1a6.93 6.93 0 0 0 5.136 2.251c3.345 0 4.3-1.763 4.3-3.084 0-4.545-9.832-2.181-9.832-7.583 0-2.528 2.411-4.128 5.384-4.128a7.255 7.255 0 0 1 5.556 2.18l-.935.973a6.033 6.033 0 0 0-4.694-1.948c-2.188 0-3.834 1.183-3.834 2.853 0 3.965 9.83 1.784 9.83 7.558 0 2-1.4 4.383-5.824 4.383A7.819 7.819 0 0 1 0 13.542z" data-name="Op component 1"/>
        <path d="M27.632 15.696l-6.761-7.257-1.818 1.871v5.386h-1.4V.278h1.4v8.438L26.968.278h1.793L21.78 7.629l7.645 8.067z" data-name="Op component 2"/>
        <path d="M31.51 15.696V.278h10.4v1.2h-9v5.709h8.824v1.2H32.91v6.1h9v1.2z" data-name="Op component 3"/>
        <path d="M50.639 15.696V1.481h-5.358v-1.2h12.141v1.2h-5.36v14.215z" data-name="Op component 4"/>
        <path d="M59.936 8.003c0-4.752 3.662-8 8.307-8a7.527 7.527 0 0 1 5.974 2.737l-1.18.719a6.083 6.083 0 0 0-4.794-2.251 6.795 6.795 0 1 0 0 13.589 6.083 6.083 0 0 0 4.794-2.251l1.205.7a7.6 7.6 0 0 1-6 2.759c-4.644-.002-8.306-3.251-8.306-8.002z" data-name="Op component 5"/>
        <path d="M89.611 15.696V8.369h-10.4v7.327h-1.4V.278h1.4v6.89h10.4V.278h1.4v15.418z" data-name="Op component 6"/>
        <path d="M104.045 15.696V.278h10.4v1.2h-8.993v5.709h8.822v1.2h-8.822v7.3z" data-name="Op component 7"/>
        <path d="M117.719.273h1.4v15.423h-1.4z" data-name="Op component 8"/>
        <path d="M129.832 15.696V1.481h-5.358v-1.2h12.145v1.2h-5.356v14.215z" data-name="Op component 9"/>
    </g>
</svg>
